<svg width="200" height="200" viewBox="0 0 200 200" fill="none" xmlns="http://www.w3.org/2000/svg">
  <rect width="200" height="200" fill="#f5f5f4"/>
  <path d="M100 60C86.8 60 76 70.8 76 84C76 97.2 86.8 108 100 108C113.2 108 124 97.2 124 84C124 70.8 113.2 60 100 60ZM100 100C91.2 100 84 92.8 84 84C84 75.2 91.2 68 100 68C108.8 68 116 75.2 116 84C116 92.8 108.8 100 100 100Z" fill="#d6d3d1"/>
  <path d="M140 120H60C55.6 120 52 123.6 52 128V140H148V128C148 123.6 144.4 120 140 120ZM60 128H140V132H60V128Z" fill="#d6d3d1"/>
  <path d="M142 128H148V140H142V128Z" fill="#d6d3d1"/>
  <path d="M52 128H58V140H52V128Z" fill="#d6d3d1"/>
  <text x="100" y="155" text-anchor="middle" fill="#a8a29e" font-size="11" font-family="sans-serif">Product Image</text>
</svg>
